<svg xmlns="http://www.w3.org/2000/svg" width="152.94" height="61.135" viewBox="0 0 152.94 61.135">
  <line id="Line_63" data-name="Line 63" x1="150" y1="1.271" transform="translate(0.004 59.365)" fill="none"
    stroke="#1de20d" stroke-width="1" />
  <line id="Line_64" data-name="Line 64" y2="54" transform="translate(94.94 6)" fill="none" stroke="#1de20d"
    stroke-width="1" />
  <g id="Rectangle_97" data-name="Rectangle 97" transform="translate(91.94)" fill="#fff" stroke="#707070"
    stroke-width="1">
    <rect width="6" height="6" stroke="none" />
    <rect x="0.5" y="0.5" width="5" height="5" fill="none" />
  </g>
  <path id="Path_29" data-name="Path 29" d="M0,0V54.6" transform="translate(150.004 6.465)" fill="#17eb37"
    stroke="#1de20d" stroke-width="1" />
  <g id="Rectangle_98" data-name="Rectangle 98" transform="translate(146.94)" fill="#fff" stroke="#707070"
    stroke-width="1">
    <rect width="6" height="6" stroke="none" />
    <rect x="0.5" y="0.5" width="5" height="5" fill="none" />
  </g>
  <line id="Line_65" data-name="Line 65" y2="54" transform="translate(41.94 6)" fill="none" stroke="#1de20d"
    stroke-width="1" />
  <g id="Rectangle_99" data-name="Rectangle 99" transform="translate(38.94)" fill="#fff" stroke="#707070"
    stroke-width="1">
    <rect width="6" height="6" stroke="none" />
    <rect x="0.5" y="0.5" width="5" height="5" fill="none" />
  </g>
  <line id="Line_66" data-name="Line 66" y2="54" transform="translate(94.94 6)" fill="none" stroke="#1de20d"
    stroke-width="1" />
  <g id="Rectangle_100" data-name="Rectangle 100" transform="translate(91.94)" fill="#fff" stroke="#707070"
    stroke-width="1">
    <rect width="6" height="6" stroke="none" />
    <rect x="0.5" y="0.5" width="5" height="5" fill="none" />
  </g>
  <path id="Path_30" data-name="Path 30" d="M0,0V54.6" transform="translate(150.004 6.465)" fill="#17eb37"
    stroke="#1de20d" stroke-width="1" />
  <g id="Rectangle_101" data-name="Rectangle 101" transform="translate(146.94)" fill="#fff" stroke="#707070"
    stroke-width="1">
    <rect width="6" height="6" stroke="none" />
    <rect x="0.5" y="0.5" width="5" height="5" fill="none" />
  </g>
  <line id="Line_67" data-name="Line 67" y2="54" transform="translate(41.94 6)" fill="none" stroke="#1de20d"
    stroke-width="1" />
  <g id="Rectangle_102" data-name="Rectangle 102" transform="translate(38.94)" fill="#fff" stroke="#707070"
    stroke-width="1">
    <rect width="6" height="6" stroke="none" />
    <rect x="0.5" y="0.5" width="5" height="5" fill="none" />
  </g>
</svg>