<svg xmlns="http://www.w3.org/2000/svg" width="152.94" height="61.135" viewBox="0 0 152.94 61.135">
  <line id="Line_68" data-name="Line 68" x1="150" y2="1.271" transform="translate(0.004 0.5)" fill="none"
    stroke="#1de20d" stroke-width="1" />
  <line id="Line_69" data-name="Line 69" y1="54" transform="translate(94.94 1.135)" fill="none" stroke="#1de20d"
    stroke-width="1" />
  <g id="Rectangle_103" data-name="Rectangle 103" transform="translate(91.94 55.135)" fill="#fff" stroke="#707070"
    stroke-width="1">
    <rect width="6" height="6" stroke="none" />
    <rect x="0.5" y="0.5" width="5" height="5" fill="none" />
  </g>
  <path id="Path_31" data-name="Path 31" d="M0,54.6V0" transform="translate(150.004 0.071)" fill="#17eb37"
    stroke="#1de20d" stroke-width="1" />
  <g id="Rectangle_104" data-name="Rectangle 104" transform="translate(146.94 55.135)" fill="#fff" stroke="#707070"
    stroke-width="1">
    <rect width="6" height="6" stroke="none" />
    <rect x="0.5" y="0.5" width="5" height="5" fill="none" />
  </g>
  <line id="Line_70" data-name="Line 70" y1="54" transform="translate(41.94 1.135)" fill="none" stroke="#1de20d"
    stroke-width="1" />
  <g id="Rectangle_105" data-name="Rectangle 105" transform="translate(38.94 55.135)" fill="#fff" stroke="#707070"
    stroke-width="1">
    <rect width="6" height="6" stroke="none" />
    <rect x="0.5" y="0.5" width="5" height="5" fill="none" />
  </g>
  <line id="Line_71" data-name="Line 71" y1="54" transform="translate(94.94 1.135)" fill="none" stroke="#1de20d"
    stroke-width="1" />
  <g id="Rectangle_106" data-name="Rectangle 106" transform="translate(91.94 55.135)" fill="#fff" stroke="#707070"
    stroke-width="1">
    <rect width="6" height="6" stroke="none" />
    <rect x="0.5" y="0.5" width="5" height="5" fill="none" />
  </g>
  <path id="Path_32" data-name="Path 32" d="M0,54.6V0" transform="translate(150.004 0.071)" fill="#17eb37"
    stroke="#1de20d" stroke-width="1" />
  <g id="Rectangle_107" data-name="Rectangle 107" transform="translate(146.94 55.135)" fill="#fff" stroke="#707070"
    stroke-width="1">
    <rect width="6" height="6" stroke="none" />
    <rect x="0.5" y="0.5" width="5" height="5" fill="none" />
  </g>
  <line id="Line_72" data-name="Line 72" y1="54" transform="translate(41.94 1.135)" fill="none" stroke="#1de20d"
    stroke-width="1" />
  <g id="Rectangle_108" data-name="Rectangle 108" transform="translate(38.94 55.135)" fill="#fff" stroke="#707070"
    stroke-width="1">
    <rect width="6" height="6" stroke="none" />
    <rect x="0.5" y="0.5" width="5" height="5" fill="none" />
  </g>
</svg>